<svg width="67" height="67" viewBox="0 0 67 67" fill="none" xmlns="http://www.w3.org/2000/svg">
<circle cx="33.5" cy="33.5" r="32" stroke="white" stroke-width="3"/>
<path fill-rule="evenodd" clip-rule="evenodd" d="M24.2192 24.2191C24.8925 23.5458 25.9842 23.5458 26.6575 24.2191L42.1502 39.7119C42.8236 40.3852 42.8236 41.4769 42.1502 42.1502C41.4769 42.8235 40.3853 42.8235 39.7119 42.1502L24.2192 26.6574C23.5459 25.9841 23.5459 24.8925 24.2192 24.2191Z" fill="white"/>
<path fill-rule="evenodd" clip-rule="evenodd" d="M42.1502 24.5886C42.8236 25.2619 42.8236 26.3536 42.1502 27.0269L26.6575 42.5196C25.9842 43.1929 24.8925 43.1929 24.2192 42.5196C23.5459 41.8463 23.5459 40.7546 24.2192 40.0813L39.7119 24.5886C40.3853 23.9153 41.4769 23.9153 42.1502 24.5886Z" fill="white"/>
</svg>
