<svg width="24" height="24" viewBox="0 0 24 24" fill="none" xmlns="http://www.w3.org/2000/svg">
<path fill-rule="evenodd" clip-rule="evenodd" d="M18.0017 12C18.0017 12.272 17.9777 12.528 17.9457 12.784L19.6337 14.104C19.7857 14.224 19.8257 14.44 19.7297 14.616L18.1297 17.384C18.0337 17.56 17.8257 17.632 17.6417 17.56L15.6497 16.76C15.2337 17.072 14.7857 17.344 14.2977 17.544L13.9937 19.664C13.9697 19.856 13.8017 20 13.6017 20H10.4017C10.2017 20 10.0337 19.856 10.0097 19.664L9.70573 17.544C9.21773 17.344 8.76973 17.08 8.35373 16.76L6.36173 17.56C6.18573 17.624 5.96973 17.56 5.87373 17.384L4.27373 14.616C4.17773 14.44 4.21773 14.224 4.36973 14.104L6.05773 12.784C6.02573 12.528 6.00173 12.264 6.00173 12C6.00173 11.736 6.02573 11.472 6.05773 11.216L4.36973 9.896C4.21773 9.776 4.16973 9.56 4.27373 9.384L5.87373 6.616C5.96973 6.44 6.17773 6.368 6.36173 6.44L8.35373 7.24C8.76973 6.928 9.21773 6.656 9.70573 6.456L10.0097 4.336C10.0337 4.144 10.2017 4 10.4017 4H13.6017C13.8017 4 13.9697 4.144 13.9937 4.336L14.2977 6.456C14.7857 6.656 15.2337 6.92 15.6497 7.24L17.6417 6.44C17.8177 6.376 18.0337 6.44 18.1297 6.616L19.7297 9.384C19.8257 9.56 19.7857 9.776 19.6337 9.896L17.9457 11.216C17.9777 11.472 18.0017 11.728 18.0017 12ZM9.20186 12C9.20186 13.544 10.4579 14.8 12.0019 14.8C13.5459 14.8 14.8019 13.544 14.8019 12C14.8019 10.456 13.5459 9.2 12.0019 9.2C10.4579 9.2 9.20186 10.456 9.20186 12Z" fill="#1A6AE3"/>
<mask id="mask0_54_143" style="mask-type:alpha" maskUnits="userSpaceOnUse" x="4" y="4" width="16" height="16">
<path fill-rule="evenodd" clip-rule="evenodd" d="M18.0017 12C18.0017 12.272 17.9777 12.528 17.9457 12.784L19.6337 14.104C19.7857 14.224 19.8257 14.44 19.7297 14.616L18.1297 17.384C18.0337 17.56 17.8257 17.632 17.6417 17.56L15.6497 16.76C15.2337 17.072 14.7857 17.344 14.2977 17.544L13.9937 19.664C13.9697 19.856 13.8017 20 13.6017 20H10.4017C10.2017 20 10.0337 19.856 10.0097 19.664L9.70573 17.544C9.21773 17.344 8.76973 17.08 8.35373 16.76L6.36173 17.56C6.18573 17.624 5.96973 17.56 5.87373 17.384L4.27373 14.616C4.17773 14.44 4.21773 14.224 4.36973 14.104L6.05773 12.784C6.02573 12.528 6.00173 12.264 6.00173 12C6.00173 11.736 6.02573 11.472 6.05773 11.216L4.36973 9.896C4.21773 9.776 4.16973 9.56 4.27373 9.384L5.87373 6.616C5.96973 6.44 6.17773 6.368 6.36173 6.44L8.35373 7.24C8.76973 6.928 9.21773 6.656 9.70573 6.456L10.0097 4.336C10.0337 4.144 10.2017 4 10.4017 4H13.6017C13.8017 4 13.9697 4.144 13.9937 4.336L14.2977 6.456C14.7857 6.656 15.2337 6.92 15.6497 7.24L17.6417 6.44C17.8177 6.376 18.0337 6.44 18.1297 6.616L19.7297 9.384C19.8257 9.56 19.7857 9.776 19.6337 9.896L17.9457 11.216C17.9777 11.472 18.0017 11.728 18.0017 12ZM9.20186 12C9.20186 13.544 10.4579 14.8 12.0019 14.8C13.5459 14.8 14.8019 13.544 14.8019 12C14.8019 10.456 13.5459 9.2 12.0019 9.2C10.4579 9.2 9.20186 10.456 9.20186 12Z" fill="white"/>
</mask>
<g mask="url(#mask0_54_143)">
<path fill-rule="evenodd" clip-rule="evenodd" d="M0 0H24V24H0V0Z" fill="url(#paint0_linear_54_143)"/>
</g>
<defs>
<linearGradient id="paint0_linear_54_143" x1="31.584" y1="-5.32518" x2="18.6738" y2="38.5641" gradientUnits="userSpaceOnUse">
<stop stop-color="#744FA3"/>
<stop offset="1" stop-color="#272F76"/>
</linearGradient>
</defs>
</svg>
