<svg width="24" height="24" viewBox="0 0 24 24" fill="none" xmlns="http://www.w3.org/2000/svg">
<path d="M19.7824 17.833L16.6666 14.7177C16.5259 14.5771 16.3353 14.499 16.1353 14.499H15.6259C16.4884 13.396 17.001 12.0086 17.001 10.4994C17.001 6.90909 14.0914 4 10.5005 4C6.90959 4 4 6.90909 4 10.4994C4 14.0896 6.90959 16.9987 10.5005 16.9987C12.01 16.9987 13.3976 16.4863 14.5008 15.6239V16.1332C14.5008 16.3332 14.5789 16.5238 14.7195 16.6644L17.8354 19.7797C18.1292 20.0734 18.6042 20.0734 18.8948 19.7797L19.7793 18.8954C20.0731 18.6017 20.0731 18.1267 19.7824 17.833ZM10.5005 14.499C8.29094 14.499 6.50018 12.7116 6.50018 10.4994C6.50018 8.29021 8.28781 6.49976 10.5005 6.49976C12.71 6.49976 14.5008 8.28708 14.5008 10.4994C14.5008 12.7085 12.7131 14.499 10.5005 14.499Z" fill="url(#paint0_linear_54_129)"/>
<defs>
<linearGradient id="paint0_linear_54_129" x1="25.056" y1="0.449878" x2="16.4492" y2="29.7094" gradientUnits="userSpaceOnUse">
<stop stop-color="#744FA3"/>
<stop offset="1" stop-color="#272F76"/>
</linearGradient>
</defs>
</svg>
