<svg width="32" height="32" viewBox="0 0 32 32" fill="none" xmlns="http://www.w3.org/2000/svg">
<path fill-rule="evenodd" clip-rule="evenodd" d="M7.21933 7.21915C7.89264 6.54583 8.98431 6.54583 9.65763 7.21915L25.1504 22.7119C25.8237 23.3852 25.8237 24.4769 25.1504 25.1502C24.477 25.8235 23.3854 25.8235 22.7121 25.1502L7.21933 9.65745C6.54601 8.98413 6.54601 7.89247 7.21933 7.21915Z" fill="white"/>
<path fill-rule="evenodd" clip-rule="evenodd" d="M25.1505 7.58859C25.8238 8.26191 25.8238 9.35357 25.1505 10.0269L9.65774 25.5196C8.98443 26.1929 7.89276 26.1929 7.21944 25.5196C6.54613 24.8463 6.54613 23.7546 7.21945 23.0813L22.7122 7.58859C23.3855 6.91527 24.4772 6.91527 25.1505 7.58859Z" fill="white"/>
</svg>
